# WaveFront *.obj file (generated by CINEMA 4D)

mtllib ./store_side.mtl

v -1341.47900390625 -1.54471409320831 -956.995849609375
v -1882.741943359375 -1.54471409320831 -1153.99951171875
v -1341.47900390625 1762.455322265625 -956.995849609375
v -1882.741943359375 1762.455322265625 -1153.99951171875
# 4 vertices

vn 0.34202015399933 0 -0.93969261646271
# 1 normal

vt 0 0 0
vt 0 1 0
vt 1 1 0
vt 1 0 0
# 4 texture coordinates

o TARGET_SIDE
usemtl default
f 2/4/1 4/3/1 3/2/1 1/1/1

